<svg width="112" height="28" viewBox="0 0 112 28" fill="none" xmlns="http://www.w3.org/2000/svg">
<path d="M36.9894 27.6933H33.5918V7.74585H41.2135C45.4617 7.74585 48.1144 9.82811 48.1144 13.8568C48.1144 17.8856 45.4617 19.9678 41.2135 19.9678H36.9942V27.6933H36.9894ZM41.0261 16.9149C43.4673 16.9149 44.7697 15.8033 44.7697 13.8568C44.7697 11.9104 43.4673 10.7988 41.0261 10.7988H36.9894V16.9098H41.0261V16.9149Z" fill="#F8F8F8"/>
<path d="M58.1034 16.4165C57.7045 16.3612 57.3874 16.331 56.9356 16.331C54.9173 16.331 53.3795 17.694 53.3795 20.0277V27.6979H50.1934V13.107H53.3795V15.2748C53.9898 13.9168 55.4267 13.0215 57.2048 13.0215C57.5748 13.0215 57.8679 13.0517 58.1082 13.0768V16.4115L58.1034 16.4165Z" fill="#F8F8F8"/>
<path d="M58.9853 20.4147C58.9853 16.1345 61.7485 12.8301 65.6218 12.8301C69.4952 12.8301 71.8066 16.0239 71.8066 20.0224V21.134H62.0368C62.2723 23.6337 63.7092 25.1627 65.7516 25.1627C67.3182 25.1627 68.5677 24.3278 68.9906 22.829L71.725 23.9103C70.7446 26.4654 68.5388 27.9944 65.7516 27.9944C61.7677 27.9944 58.9805 24.9112 58.9805 20.4097L58.9853 20.4147ZM62.1954 18.6343H68.5917C68.5677 17.0248 67.6114 15.6366 65.593 15.6366C63.9495 15.6366 62.676 16.6627 62.1954 18.6343Z" fill="#F8F8F8"/>
<path d="M75.3465 22.9145C76.1682 24.3328 77.7589 25.2784 79.3784 25.2784C80.7336 25.2784 81.983 24.7754 81.983 23.4728C81.983 22.1701 80.8153 22.0846 78.6095 21.6118C76.4085 21.139 73.8856 20.5556 73.8856 17.4422C73.8856 14.7765 76.1154 12.8301 79.3303 12.8301C81.7716 12.8301 83.9485 13.9668 84.9577 15.5813L82.8096 17.6082C82.0119 16.3005 80.6855 15.5511 79.1477 15.5511C77.8454 15.5511 76.9948 16.1597 76.9948 17.1354C76.9948 18.1917 78.004 18.3878 79.7532 18.7751C82.1176 19.3032 85.0923 19.8313 85.0923 23.166C85.0923 26.1133 82.5164 27.9994 79.3592 27.9994C76.7834 27.9994 74.2075 26.9181 72.9629 24.9163L75.3513 22.9145H75.3465Z" fill="#F8F8F8"/>
<path d="M86.7441 23.6386C86.7441 20.8622 88.7337 19.635 91.4152 19.0566L95.2645 18.2217V17.9752C95.2645 16.582 94.5773 15.722 92.8761 15.722C91.3623 15.722 90.5694 16.4412 90.1946 17.8596L87.1959 17.1403C87.8831 14.7261 89.9303 12.835 93.0107 12.835C96.3554 12.835 98.3737 14.4998 98.3737 17.8596V24.1416C98.3737 24.9765 98.7197 25.2229 99.5944 25.1123V27.6975C97.2877 27.9741 96.0622 27.5013 95.5865 26.3093C94.707 27.3354 93.2509 27.949 91.444 27.949C88.7913 27.949 86.7441 26.254 86.7441 23.6436V23.6386ZM95.2645 20.7767L92.2658 21.4457C90.9106 21.7525 89.9014 22.1951 89.9014 23.5028C89.9014 24.6395 90.6992 25.2833 91.9198 25.2833C93.621 25.2833 95.2645 24.3377 95.2645 22.5572V20.7767Z" fill="#F8F8F8"/>
<path d="M102.016 7.74561H105.307V11.1657H102.016V7.74561ZM105.255 27.6931H102.068V13.1072H105.255V27.6931Z" fill="#F8F8F8"/>
<path d="M112.001 27.6931H108.814V7.74561H112.001V27.6931Z" fill="#F8F8F8"/>
<path d="M13.5352 20.9632V8.46962C13.5352 7.98174 14.0109 7.74032 14.429 7.92139L17.173 9.44536C17.3508 9.56607 17.471 9.75217 17.471 9.99359V20.9632C17.471 21.3304 17.2307 21.5718 16.8751 21.5718H14.1311C13.8331 21.5718 13.5352 21.265 13.5352 20.9632Z" fill="#F8F8F8"/>
<path d="M5.66822 20.9639V14.018C5.66822 13.5301 5.19246 13.2887 4.77438 13.4697L2.03037 14.9937C1.85256 15.1144 1.73242 15.3005 1.73242 15.5419V20.9639C1.73242 21.331 1.9727 21.5724 2.32832 21.5724H5.07232C5.37027 21.5724 5.66822 21.2656 5.66822 20.9639Z" fill="#F8F8F8"/>
<path d="M7.63477 20.9632V0.608289C7.63477 0.120415 8.11052 -0.121007 8.52861 0.0600596L11.2726 1.58404C11.4504 1.70475 11.5706 1.89084 11.5706 2.13226V20.9632C11.5706 21.3303 11.3303 21.5718 10.9747 21.5718H8.23066C7.87505 21.5718 7.63477 21.2649 7.63477 20.9632Z" fill="#F8F8F8"/>
<path d="M17.6472 27.3614L19.1369 24.5599C19.3772 24.1324 19.0792 23.6445 18.5987 23.6445H0.596834C0.121078 23.6445 -0.119202 24.1324 0.0586055 24.5599L1.54835 27.3614C1.66849 27.5425 1.84629 27.6682 2.08657 27.6682H17.1714C17.3492 27.6682 17.5895 27.5475 17.6472 27.3614Z" fill="#F8F8F8"/>
</svg>
