<svg width="208" height="480" viewBox="0 0 208 480" fill="none" xmlns="http://www.w3.org/2000/svg">
<g filter="url(#filter0_d_591_24710)">
<rect x="28" y="28" width="144" height="128" rx="1" fill="white"/>
</g>
<g filter="url(#filter1_d_591_24710)">
<rect x="28" y="172" width="144" height="128" rx="1" fill="white"/>
</g>
<g filter="url(#filter2_d_591_24710)">
<rect x="28" y="316" width="144" height="128" rx="1" fill="white"/>
</g>
<path d="M53.4993 97.64H50.9393V112H53.4993V107.66L55.2393 105.74L59.7793 112H62.7993L56.8993 103.86L62.4793 97.64H59.4593L53.4993 104.44V97.64ZM68.6332 103.74L64.9132 97.64H62.1332L67.3332 106.08V112H69.8932V106.08L75.0732 97.64H72.3532L68.6332 103.74ZM76.871 104.82C76.871 101.72 78.551 99.68 80.911 99.68C82.591 99.68 83.811 100.7 84.251 102.38L86.651 101.56C85.811 99.02 83.811 97.42 80.911 97.42C77.091 97.42 74.311 100.46 74.311 104.82C74.311 109.18 77.091 112.22 80.911 112.22C83.811 112.22 85.811 110.62 86.651 108.08L84.251 107.26C83.811 108.94 82.591 109.96 80.911 109.96C78.551 109.96 76.871 107.92 76.871 104.82ZM101.632 104.24C101.492 105.44 101.172 106.56 100.652 107.5L97.732 104.62C99.952 103.56 101.012 102.62 101.012 100.88C101.012 98.98 99.452 97.42 96.952 97.42C94.452 97.42 92.672 99.06 92.672 101.2C92.672 102.46 93.312 103.4 94.132 104.3C92.332 105.26 91.272 106.4 91.272 108.24C91.272 110.7 93.412 112.22 96.252 112.22C97.992 112.22 99.472 111.66 100.672 110.76L101.932 112H105.212L102.292 109.12C103.232 107.82 103.832 106.24 104.012 104.64L101.632 104.24ZM95.152 101.06C95.152 100 95.932 99.28 96.972 99.28C98.052 99.28 98.692 100.1 98.692 100.94C98.692 102.06 98.092 102.52 96.372 103.26C95.652 102.5 95.152 101.9 95.152 101.06ZM93.872 107.96C93.872 106.86 94.512 106.22 95.492 105.68L99.152 109.26C98.412 109.8 97.512 110.12 96.472 110.12C95.032 110.12 93.872 109.32 93.872 107.96ZM114.234 97.64L108.794 112H111.334L112.554 108.72H118.754L119.994 112H122.574L117.134 97.64H114.234ZM115.634 100.48L117.914 106.48H113.394L115.634 100.48ZM132.154 112L135.914 100.9V112H138.294V97.64H134.854L131.154 108.64L127.454 97.64H123.934V112H126.314V100.9L130.074 112H132.154ZM140.804 112H150.124V109.76H143.364V97.64H140.804V112Z" fill="#2F3239"/>
<path d="M77.5327 248.82C77.5327 245.72 79.2127 243.68 81.5727 243.68C83.2527 243.68 84.4727 244.7 84.9127 246.38L87.3127 245.56C86.4727 243.02 84.4727 241.42 81.5727 241.42C77.7527 241.42 74.9727 244.46 74.9727 248.82C74.9727 253.18 77.7527 256.22 81.5727 256.22C84.4727 256.22 86.4727 254.62 87.3127 252.08L84.9127 251.26C84.4727 252.94 83.2527 253.96 81.5727 253.96C79.2127 253.96 77.5327 251.92 77.5327 248.82ZM90.6726 248.82C90.6726 245.72 92.3526 243.68 94.7126 243.68C96.3926 243.68 97.6126 244.7 98.0526 246.38L100.453 245.56C99.6126 243.02 97.6126 241.42 94.7126 241.42C90.8926 241.42 88.1126 244.46 88.1126 248.82C88.1126 253.18 90.8926 256.22 94.7126 256.22C97.6126 256.22 99.6126 254.62 100.453 252.08L98.0526 251.26C97.6126 252.94 96.3926 253.96 94.7126 253.96C92.3526 253.96 90.6726 251.92 90.6726 248.82ZM104.552 250.44H107.732C110.932 250.44 112.932 248.9 112.932 246.04C112.932 243.14 110.932 241.64 107.732 241.64H101.992V256H104.552V250.44ZM104.552 248.24V243.84H107.592C109.432 243.84 110.412 244.62 110.412 246.04C110.412 247.44 109.432 248.24 107.592 248.24H104.552ZM117.108 241.64L111.668 256H114.208L115.428 252.72H121.628L122.868 256H125.448L120.008 241.64H117.108ZM118.508 244.48L120.788 250.48H116.268L118.508 244.48Z" fill="#2F3239"/>
<path d="M84.1311 400H86.4711V392.26H80.2311V394.5H84.0111C83.9311 396.54 82.5711 398.02 80.4911 398.02C78.0311 398.02 76.3511 395.94 76.3511 392.84C76.3511 389.74 78.0311 387.68 80.4511 387.68C82.1711 387.68 83.3711 388.66 83.7911 390.36L86.2311 389.54C85.3511 387 83.3711 385.42 80.4311 385.42C76.5711 385.42 73.7911 388.52 73.7911 392.88C73.7911 397.22 76.5511 400.22 80.2711 400.22C82.1511 400.22 83.5511 399.48 84.1311 398.52V400ZM88.8623 400H93.6623C98.1223 400 100.882 397.2 100.882 392.82C100.882 388.44 98.1223 385.64 93.6623 385.64H88.8623V400ZM91.3623 397.8V387.84H93.6423C96.6223 387.84 98.3623 389.78 98.3623 392.82C98.3623 395.84 96.6223 397.8 93.6623 397.8H91.3623ZM105.246 394.44H108.426C111.626 394.44 113.626 392.9 113.626 390.04C113.626 387.14 111.626 385.64 108.426 385.64H102.686V400H105.246V394.44ZM105.246 392.24V387.84H108.286C110.126 387.84 111.106 388.62 111.106 390.04C111.106 391.44 110.126 392.24 108.286 392.24H105.246ZM117.682 394.44H120.002L123.502 400H126.422L122.722 394.24C124.822 393.74 126.062 392.3 126.062 390.04C126.062 387.14 124.062 385.64 120.862 385.64H115.122V400H117.682V394.44ZM117.682 392.24V387.84H120.722C122.562 387.84 123.542 388.62 123.542 390.04C123.542 391.44 122.562 392.24 120.722 392.24H117.682Z" fill="#2F3239"/>
<path d="M73.9983 132.692C73.9983 130.652 75.1263 129.272 76.7223 129.272C77.8383 129.272 78.6423 129.92 78.9543 131.012L80.0463 130.652C79.5423 129.164 78.3663 128.252 76.7223 128.252C74.4903 128.252 72.8463 130.064 72.8463 132.692C72.8463 135.32 74.4903 137.132 76.7223 137.132C78.3663 137.132 79.5423 136.22 80.0463 134.732L78.9543 134.372C78.6423 135.464 77.8383 136.112 76.7223 136.112C75.1263 136.112 73.9983 134.732 73.9983 132.692ZM86.6125 133.868C86.6125 131.924 85.4125 130.604 83.6965 130.604C81.9805 130.604 80.7805 131.924 80.7805 133.868C80.7805 135.812 81.9805 137.132 83.6965 137.132C85.4125 137.132 86.6125 135.812 86.6125 133.868ZM81.8725 133.868C81.8725 132.428 82.5925 131.516 83.6965 131.516C84.8005 131.516 85.5205 132.428 85.5205 133.868C85.5205 135.296 84.8005 136.208 83.6965 136.208C82.5925 136.208 81.8725 135.296 81.8725 133.868ZM89.0659 133.244C89.0659 132.224 89.8339 131.612 90.5539 131.612C91.4419 131.612 91.8019 132.272 91.8019 133.148V137H92.8819V133.244C92.8819 132.224 93.6499 131.612 94.3699 131.612C95.2579 131.612 95.6179 132.272 95.6179 133.148V137H96.6979V132.86C96.6979 131.528 95.9179 130.604 94.6219 130.604C93.6379 130.604 92.9659 131.156 92.6179 131.672C92.3059 131.024 91.7179 130.604 90.8779 130.604C90.0019 130.604 89.4019 131.06 89.0659 131.576V130.724H87.9859V137H89.0659V133.244ZM101.463 137.132C103.203 137.132 104.199 135.644 104.199 133.868C104.199 132.08 103.203 130.604 101.463 130.604C100.587 130.604 99.8911 131.024 99.5191 131.636V130.724H98.4391V139.16H99.5191V136.088C99.8911 136.712 100.587 137.132 101.463 137.132ZM99.4951 133.652C99.4951 132.188 100.383 131.552 101.271 131.552C102.447 131.552 103.107 132.512 103.107 133.868C103.107 135.212 102.447 136.184 101.271 136.184C100.383 136.184 99.4951 135.536 99.4951 134.096V133.652ZM106.644 128.384H105.564V137H106.644V128.384ZM108.399 129.632H109.575V128.384H108.399V129.632ZM109.527 130.724H108.447V137H109.527V130.724ZM112.902 137.108C113.754 137.108 114.45 136.784 114.834 136.292C114.966 136.892 115.518 137.12 116.478 137V136.136C116.058 136.232 115.806 136.1 115.806 135.692V132.632C115.806 131.288 114.942 130.604 113.538 130.604C112.254 130.604 111.33 131.336 111.03 132.356L112.05 132.62C112.242 131.924 112.71 131.552 113.502 131.552C114.342 131.552 114.738 131.96 114.738 132.68V132.944L113.214 133.256C111.81 133.544 110.838 134.06 110.838 135.308C110.838 136.436 111.762 137.108 112.902 137.108ZM114.738 134.864C114.738 135.668 113.958 136.232 113.034 136.232C112.35 136.232 111.906 135.872 111.906 135.26C111.906 134.504 112.554 134.24 113.514 134.048L114.738 133.784V134.864ZM117.646 137H118.726V133.256C118.726 132.212 119.518 131.612 120.298 131.612C121.234 131.612 121.606 132.272 121.606 133.148V137H122.686V132.86C122.686 131.528 121.93 130.604 120.598 130.604C119.71 130.604 119.086 131.06 118.726 131.576V130.724H117.646V137ZM124.588 135.5C124.588 136.7 125.2 137.06 126.268 137.06C126.628 137.06 126.94 137.024 127.216 136.964V136.04C126.964 136.1 126.784 136.112 126.532 136.112C125.98 136.112 125.656 135.992 125.656 135.332V131.648H127.084V130.724H125.656V128.888H124.588V130.724H123.616V131.648H124.588V135.5Z" fill="#2F3239"/>
<path d="M73.9983 276.692C73.9983 274.652 75.1263 273.272 76.7223 273.272C77.8383 273.272 78.6423 273.92 78.9543 275.012L80.0463 274.652C79.5423 273.164 78.3663 272.252 76.7223 272.252C74.4903 272.252 72.8463 274.064 72.8463 276.692C72.8463 279.32 74.4903 281.132 76.7223 281.132C78.3663 281.132 79.5423 280.22 80.0463 278.732L78.9543 278.372C78.6423 279.464 77.8383 280.112 76.7223 280.112C75.1263 280.112 73.9983 278.732 73.9983 276.692ZM86.6125 277.868C86.6125 275.924 85.4125 274.604 83.6965 274.604C81.9805 274.604 80.7805 275.924 80.7805 277.868C80.7805 279.812 81.9805 281.132 83.6965 281.132C85.4125 281.132 86.6125 279.812 86.6125 277.868ZM81.8725 277.868C81.8725 276.428 82.5925 275.516 83.6965 275.516C84.8005 275.516 85.5205 276.428 85.5205 277.868C85.5205 279.296 84.8005 280.208 83.6965 280.208C82.5925 280.208 81.8725 279.296 81.8725 277.868ZM89.0659 277.244C89.0659 276.224 89.8339 275.612 90.5539 275.612C91.4419 275.612 91.8019 276.272 91.8019 277.148V281H92.8819V277.244C92.8819 276.224 93.6499 275.612 94.3699 275.612C95.2579 275.612 95.6179 276.272 95.6179 277.148V281H96.6979V276.86C96.6979 275.528 95.9179 274.604 94.6219 274.604C93.6379 274.604 92.9659 275.156 92.6179 275.672C92.3059 275.024 91.7179 274.604 90.8779 274.604C90.0019 274.604 89.4019 275.06 89.0659 275.576V274.724H87.9859V281H89.0659V277.244ZM101.463 281.132C103.203 281.132 104.199 279.644 104.199 277.868C104.199 276.08 103.203 274.604 101.463 274.604C100.587 274.604 99.8911 275.024 99.5191 275.636V274.724H98.4391V283.16H99.5191V280.088C99.8911 280.712 100.587 281.132 101.463 281.132ZM99.4951 277.652C99.4951 276.188 100.383 275.552 101.271 275.552C102.447 275.552 103.107 276.512 103.107 277.868C103.107 279.212 102.447 280.184 101.271 280.184C100.383 280.184 99.4951 279.536 99.4951 278.096V277.652ZM106.644 272.384H105.564V281H106.644V272.384ZM108.399 273.632H109.575V272.384H108.399V273.632ZM109.527 274.724H108.447V281H109.527V274.724ZM112.902 281.108C113.754 281.108 114.45 280.784 114.834 280.292C114.966 280.892 115.518 281.12 116.478 281V280.136C116.058 280.232 115.806 280.1 115.806 279.692V276.632C115.806 275.288 114.942 274.604 113.538 274.604C112.254 274.604 111.33 275.336 111.03 276.356L112.05 276.62C112.242 275.924 112.71 275.552 113.502 275.552C114.342 275.552 114.738 275.96 114.738 276.68V276.944L113.214 277.256C111.81 277.544 110.838 278.06 110.838 279.308C110.838 280.436 111.762 281.108 112.902 281.108ZM114.738 278.864C114.738 279.668 113.958 280.232 113.034 280.232C112.35 280.232 111.906 279.872 111.906 279.26C111.906 278.504 112.554 278.24 113.514 278.048L114.738 277.784V278.864ZM117.646 281H118.726V277.256C118.726 276.212 119.518 275.612 120.298 275.612C121.234 275.612 121.606 276.272 121.606 277.148V281H122.686V276.86C122.686 275.528 121.93 274.604 120.598 274.604C119.71 274.604 119.086 275.06 118.726 275.576V274.724H117.646V281ZM124.588 279.5C124.588 280.7 125.2 281.06 126.268 281.06C126.628 281.06 126.94 281.024 127.216 280.964V280.04C126.964 280.1 126.784 280.112 126.532 280.112C125.98 280.112 125.656 279.992 125.656 279.332V275.648H127.084V274.724H125.656V272.888H124.588V274.724H123.616V275.648H124.588V279.5Z" fill="#2F3239"/>
<path d="M73.9983 420.692C73.9983 418.652 75.1263 417.272 76.7223 417.272C77.8383 417.272 78.6423 417.92 78.9543 419.012L80.0463 418.652C79.5423 417.164 78.3663 416.252 76.7223 416.252C74.4903 416.252 72.8463 418.064 72.8463 420.692C72.8463 423.32 74.4903 425.132 76.7223 425.132C78.3663 425.132 79.5423 424.22 80.0463 422.732L78.9543 422.372C78.6423 423.464 77.8383 424.112 76.7223 424.112C75.1263 424.112 73.9983 422.732 73.9983 420.692ZM86.6125 421.868C86.6125 419.924 85.4125 418.604 83.6965 418.604C81.9805 418.604 80.7805 419.924 80.7805 421.868C80.7805 423.812 81.9805 425.132 83.6965 425.132C85.4125 425.132 86.6125 423.812 86.6125 421.868ZM81.8725 421.868C81.8725 420.428 82.5925 419.516 83.6965 419.516C84.8005 419.516 85.5205 420.428 85.5205 421.868C85.5205 423.296 84.8005 424.208 83.6965 424.208C82.5925 424.208 81.8725 423.296 81.8725 421.868ZM89.0659 421.244C89.0659 420.224 89.8339 419.612 90.5539 419.612C91.4419 419.612 91.8019 420.272 91.8019 421.148V425H92.8819V421.244C92.8819 420.224 93.6499 419.612 94.3699 419.612C95.2579 419.612 95.6179 420.272 95.6179 421.148V425H96.6979V420.86C96.6979 419.528 95.9179 418.604 94.6219 418.604C93.6379 418.604 92.9659 419.156 92.6179 419.672C92.3059 419.024 91.7179 418.604 90.8779 418.604C90.0019 418.604 89.4019 419.06 89.0659 419.576V418.724H87.9859V425H89.0659V421.244ZM101.463 425.132C103.203 425.132 104.199 423.644 104.199 421.868C104.199 420.08 103.203 418.604 101.463 418.604C100.587 418.604 99.8911 419.024 99.5191 419.636V418.724H98.4391V427.16H99.5191V424.088C99.8911 424.712 100.587 425.132 101.463 425.132ZM99.4951 421.652C99.4951 420.188 100.383 419.552 101.271 419.552C102.447 419.552 103.107 420.512 103.107 421.868C103.107 423.212 102.447 424.184 101.271 424.184C100.383 424.184 99.4951 423.536 99.4951 422.096V421.652ZM106.644 416.384H105.564V425H106.644V416.384ZM108.399 417.632H109.575V416.384H108.399V417.632ZM109.527 418.724H108.447V425H109.527V418.724ZM112.902 425.108C113.754 425.108 114.45 424.784 114.834 424.292C114.966 424.892 115.518 425.12 116.478 425V424.136C116.058 424.232 115.806 424.1 115.806 423.692V420.632C115.806 419.288 114.942 418.604 113.538 418.604C112.254 418.604 111.33 419.336 111.03 420.356L112.05 420.62C112.242 419.924 112.71 419.552 113.502 419.552C114.342 419.552 114.738 419.96 114.738 420.68V420.944L113.214 421.256C111.81 421.544 110.838 422.06 110.838 423.308C110.838 424.436 111.762 425.108 112.902 425.108ZM114.738 422.864C114.738 423.668 113.958 424.232 113.034 424.232C112.35 424.232 111.906 423.872 111.906 423.26C111.906 422.504 112.554 422.24 113.514 422.048L114.738 421.784V422.864ZM117.646 425H118.726V421.256C118.726 420.212 119.518 419.612 120.298 419.612C121.234 419.612 121.606 420.272 121.606 421.148V425H122.686V420.86C122.686 419.528 121.93 418.604 120.598 418.604C119.71 418.604 119.086 419.06 118.726 419.576V418.724H117.646V425ZM124.588 423.5C124.588 424.7 125.2 425.06 126.268 425.06C126.628 425.06 126.94 425.024 127.216 424.964V424.04C126.964 424.1 126.784 424.112 126.532 424.112C125.98 424.112 125.656 423.992 125.656 423.332V419.648H127.084V418.724H125.656V416.888H124.588V418.724H123.616V419.648H124.588V423.5Z" fill="#2F3239"/>
<path d="M98.9103 57.053L96.5665 56.3498C96.2978 56.2691 96.1098 55.9967 96.1098 55.6868C96.1098 55.3082 96.3858 54.9998 96.7243 54.9998H98.1884C98.4259 54.9998 98.6551 55.067 98.8561 55.1936C99.0249 55.2993 99.2395 55.2931 99.3837 55.1556L99.9957 54.5717C100.18 54.3962 100.169 54.092 99.966 53.9394C99.4921 53.5837 98.9202 53.3785 98.3322 53.3483V52.4998C98.3322 52.2696 98.1457 52.0832 97.9155 52.0832H97.0822C96.852 52.0832 96.6655 52.2696 96.6655 52.4998V53.3394C95.4353 53.3722 94.4431 54.4097 94.4431 55.6868C94.4431 56.7269 95.1191 57.6561 96.0879 57.9467L98.4316 58.6498C98.7004 58.7306 98.8884 59.003 98.8884 59.3129C98.8884 59.6915 98.6124 59.9998 98.2738 59.9998H96.8098C96.5723 59.9998 96.3431 59.9327 96.1421 59.8061C95.9733 59.7004 95.7587 59.7066 95.6145 59.8441L95.0025 60.428C94.8186 60.6035 94.829 60.9076 95.0322 61.0603C95.5061 61.416 96.078 61.6212 96.666 61.6514V62.4998C96.666 62.73 96.8525 62.9165 97.0827 62.9165H97.916C98.1462 62.9165 98.3327 62.73 98.3327 62.4998V61.6603C99.5629 61.6274 100.555 60.5905 100.555 59.3129C100.555 58.2728 99.879 57.3436 98.9103 57.053ZM113.149 71.7488L106.431 65.03C106.311 64.9103 106.155 64.8478 105.988 64.8478H105.451C107.238 62.9155 108.332 60.3373 108.332 57.4993C108.332 51.5155 103.483 46.6665 97.4988 46.6665C91.515 46.6665 86.666 51.5155 86.666 57.4993C86.666 63.4832 91.515 68.3321 97.4988 68.3321C100.337 68.3321 102.915 67.2384 104.847 65.4571V65.9884C104.847 66.155 104.915 66.3113 105.03 66.4311L111.748 73.1493C111.993 73.3941 112.388 73.3941 112.633 73.1493L113.149 72.6337C113.394 72.3894 113.394 71.9936 113.149 71.7488ZM97.4988 66.6655C92.4316 66.6655 88.3327 62.567 88.3327 57.4993C88.3327 52.4316 92.4316 48.3332 97.4988 48.3332C102.566 48.3332 106.665 52.4321 106.665 57.4993C106.665 62.567 102.567 66.6655 97.4988 66.6655Z" fill="#4758FD"/>
<path d="M110.964 339.026L100.964 334.859C100.659 334.733 100.332 334.668 100.003 334.668C99.6728 334.668 99.3463 334.733 99.0417 334.859L89.0417 339.026C88.1094 339.411 87.5 340.323 87.5 341.333C87.5 351.672 93.4635 358.818 99.0365 361.141C99.651 361.396 100.344 361.396 100.958 361.141C105.422 359.281 112.5 352.859 112.5 341.333C112.5 340.323 111.891 339.411 110.964 339.026ZM100.323 359.604C100.115 359.688 99.8854 359.688 99.6823 359.604C94.5833 357.583 89.1667 350.5 89.1667 341.333C89.1667 340.995 89.3698 340.693 89.6771 340.563L99.6771 336.396C99.8802 336.313 100.115 336.313 100.318 336.396L110.318 340.563C110.63 340.693 110.833 340.995 110.828 341.333C110.833 350.5 105.417 357.583 100.323 359.604ZM107.417 342.677C107.172 342.432 106.776 342.432 106.531 342.672L98.0208 351.115L94.4271 347.495C94.1823 347.25 93.7865 347.25 93.5417 347.49L93.099 347.932C92.8542 348.177 92.8542 348.573 93.0938 348.818L97.5677 353.328C97.8125 353.573 98.2083 353.573 98.4531 353.333L107.854 344.01C108.099 343.766 108.099 343.37 107.859 343.125L107.417 342.677Z" fill="#4758FD"/>
<path d="M100.846 191.513L99.9938 192.384L99.1416 191.513C97.6423 189.948 94.999 190.666 94.4872 192.754L94.1845 193.94L93.0023 193.603C90.9191 193.018 89.0196 194.963 89.5934 197.012L89.9299 198.193L88.7436 198.495C86.6668 199.005 85.9461 201.663 87.5049 203.152L88.3795 204.001L87.5049 204.85C85.9608 206.325 86.6448 208.992 88.7441 209.506L89.93 209.809L89.5935 210.989C89.021 213.028 90.9072 214.983 93.0023 214.398L94.1845 214.062L94.4872 215.247C94.999 217.335 97.6423 218.053 99.1416 216.489L99.9938 215.618L100.846 216.489C102.345 218.053 104.989 217.335 105.5 215.247L105.803 214.062L106.985 214.398C109.079 214.983 110.966 213.031 110.394 210.989L110.058 209.809L111.243 209.506C113.357 208.989 114.036 206.336 112.485 204.852L111.615 204.001L112.48 203.154C114.038 201.682 113.349 199.011 111.244 198.495L110.058 198.193L110.394 197.012C110.972 194.956 109.066 193.022 106.985 193.603L105.803 193.94L105.501 192.754C104.989 190.666 102.345 189.948 100.846 191.513ZM103.883 193.157L104.612 196.012L107.438 195.207C108.251 194.98 109.018 195.746 108.79 196.559L107.985 199.384L110.841 200.113C111.669 200.31 111.942 201.381 111.327 201.95L109.231 204.001L111.327 206.051C111.936 206.627 111.688 207.686 110.841 207.889L107.985 208.617L108.79 211.442C109.018 212.255 108.251 213.022 107.438 212.794L104.612 211.989L103.883 214.844C103.687 215.664 102.636 215.955 102.045 215.33L99.9938 213.235L97.9428 215.33C97.3517 215.955 96.3005 215.664 96.1045 214.844L95.3758 211.989L92.5496 212.794C91.7368 213.022 90.9698 212.255 91.1974 211.442L92.0025 208.617L89.1464 207.889C88.3305 207.694 88.0518 206.627 88.6602 206.051L90.7721 204.001L88.6602 201.95C88.0448 201.368 88.3398 200.305 89.1464 200.113L92.0025 199.384L91.1974 196.559C90.9699 195.746 91.7366 194.98 92.5496 195.207L95.3758 196.012L96.1045 193.157C96.3004 192.337 97.3514 192.046 97.9428 192.671L99.9938 194.767L102.045 192.671C102.636 192.046 103.687 192.337 103.883 193.157Z" fill="#4758FD"/>
<defs>
<filter id="filter0_d_591_24710" x="0" y="0" width="208" height="192" filterUnits="userSpaceOnUse" color-interpolation-filters="sRGB">
<feFlood flood-opacity="0" result="BackgroundImageFix"/>
<feColorMatrix in="SourceAlpha" type="matrix" values="0 0 0 0 0 0 0 0 0 0 0 0 0 0 0 0 0 0 127 0" result="hardAlpha"/>
<feOffset dx="4" dy="4"/>
<feGaussianBlur stdDeviation="16"/>
<feComposite in2="hardAlpha" operator="out"/>
<feColorMatrix type="matrix" values="0 0 0 0 0.0705882 0 0 0 0 0.0901961 0 0 0 0 0.133333 0 0 0 0.12 0"/>
<feBlend mode="normal" in2="BackgroundImageFix" result="effect1_dropShadow_591_24710"/>
<feBlend mode="normal" in="SourceGraphic" in2="effect1_dropShadow_591_24710" result="shape"/>
</filter>
<filter id="filter1_d_591_24710" x="0" y="144" width="208" height="192" filterUnits="userSpaceOnUse" color-interpolation-filters="sRGB">
<feFlood flood-opacity="0" result="BackgroundImageFix"/>
<feColorMatrix in="SourceAlpha" type="matrix" values="0 0 0 0 0 0 0 0 0 0 0 0 0 0 0 0 0 0 127 0" result="hardAlpha"/>
<feOffset dx="4" dy="4"/>
<feGaussianBlur stdDeviation="16"/>
<feComposite in2="hardAlpha" operator="out"/>
<feColorMatrix type="matrix" values="0 0 0 0 0.0705882 0 0 0 0 0.0901961 0 0 0 0 0.133333 0 0 0 0.12 0"/>
<feBlend mode="normal" in2="BackgroundImageFix" result="effect1_dropShadow_591_24710"/>
<feBlend mode="normal" in="SourceGraphic" in2="effect1_dropShadow_591_24710" result="shape"/>
</filter>
<filter id="filter2_d_591_24710" x="0" y="288" width="208" height="192" filterUnits="userSpaceOnUse" color-interpolation-filters="sRGB">
<feFlood flood-opacity="0" result="BackgroundImageFix"/>
<feColorMatrix in="SourceAlpha" type="matrix" values="0 0 0 0 0 0 0 0 0 0 0 0 0 0 0 0 0 0 127 0" result="hardAlpha"/>
<feOffset dx="4" dy="4"/>
<feGaussianBlur stdDeviation="16"/>
<feComposite in2="hardAlpha" operator="out"/>
<feColorMatrix type="matrix" values="0 0 0 0 0.0705882 0 0 0 0 0.0901961 0 0 0 0 0.133333 0 0 0 0.12 0"/>
<feBlend mode="normal" in2="BackgroundImageFix" result="effect1_dropShadow_591_24710"/>
<feBlend mode="normal" in="SourceGraphic" in2="effect1_dropShadow_591_24710" result="shape"/>
</filter>
</defs>
</svg>
