<svg width="16" height="16" viewBox="0 0 16 16" fill="none" xmlns="http://www.w3.org/2000/svg">
<path d="M12.3327 4H3.66602C3.11393 4 2.66602 4.44792 2.66602 5V11C2.66602 11.5521 3.11393 12 3.66602 12H12.3327C12.8848 12 13.3327 11.5521 13.3327 11V5C13.3327 4.44792 12.8848 4 12.3327 4ZM3.66602 4.66667H12.3327C12.516 4.66667 12.666 4.81667 12.666 5V5.8625C12.2098 6.24792 11.5577 6.77917 9.52852 8.38958C9.17643 8.66875 8.48268 9.34167 7.99935 9.33333C7.51602 9.34167 6.82018 8.66875 6.47018 8.38958C4.44102 6.77917 3.78893 6.24792 3.33268 5.8625V5C3.33268 4.81667 3.48268 4.66667 3.66602 4.66667ZM12.3327 11.3333H3.66602C3.48268 11.3333 3.33268 11.1833 3.33268 11V6.72917C3.80768 7.11875 4.55768 7.72083 6.0556 8.91042C6.48268 9.25208 7.23685 10.0042 7.99935 10C8.75768 10.0063 9.5056 9.26042 9.9431 8.91042C11.441 7.72083 12.191 7.11875 12.666 6.72917V11C12.666 11.1833 12.516 11.3333 12.3327 11.3333Z" fill="black"/>
</svg>
