<svg width="112" height="28" viewBox="0 0 112 28" fill="none" xmlns="http://www.w3.org/2000/svg">
<path d="M36.9894 27.6933H33.5918V7.74585H41.2135C45.4617 7.74585 48.1144 9.82811 48.1144 13.8568C48.1144 17.8856 45.4617 19.9678 41.2135 19.9678H36.9942V27.6933H36.9894ZM41.0261 16.9149C43.4673 16.9149 44.7697 15.8033 44.7697 13.8568C44.7697 11.9104 43.4673 10.7988 41.0261 10.7988H36.9894V16.9098H41.0261V16.9149Z" fill="#2F3239"/>
<path d="M58.1034 16.4162C57.7045 16.3609 57.3874 16.3307 56.9356 16.3307C54.9173 16.3307 53.3795 17.6938 53.3795 20.0275V27.6977H50.1934V13.1067H53.3795V15.2745C53.9898 13.9165 55.4267 13.0212 57.2048 13.0212C57.5748 13.0212 57.8679 13.0514 58.1082 13.0766V16.4112L58.1034 16.4162Z" fill="#2F3239"/>
<path d="M58.9853 20.4145C58.9853 16.1343 61.7485 12.8298 65.6218 12.8298C69.4952 12.8298 71.8066 16.0236 71.8066 20.0222V21.1337H62.0368C62.2723 23.6335 63.7092 25.1625 65.7516 25.1625C67.3182 25.1625 68.5677 24.3276 68.9906 22.8287L71.725 23.9101C70.7446 26.4651 68.5388 27.9941 65.7516 27.9941C61.7677 27.9941 58.9805 24.911 58.9805 20.4095L58.9853 20.4145ZM62.1954 18.634H68.5917C68.5677 17.0245 67.6114 15.6364 65.593 15.6364C63.9495 15.6364 62.676 16.6624 62.1954 18.634Z" fill="#2F3239"/>
<path d="M75.3465 22.9142C76.1682 24.3326 77.7589 25.2781 79.3784 25.2781C80.7336 25.2781 81.983 24.7752 81.983 23.4725C81.983 22.1698 80.8153 22.0843 78.6095 21.6116C76.4085 21.1388 73.8856 20.5553 73.8856 17.442C73.8856 14.7763 76.1154 12.8298 79.3303 12.8298C81.7716 12.8298 83.9485 13.9665 84.9577 15.581L82.8096 17.608C82.0119 16.3003 80.6855 15.5509 79.1477 15.5509C77.8454 15.5509 76.9948 16.1594 76.9948 17.1352C76.9948 18.1914 78.004 18.3876 79.7532 18.7748C82.1176 19.303 85.0923 19.8311 85.0923 23.1657C85.0923 26.1131 82.5164 27.9992 79.3592 27.9992C76.7834 27.9992 74.2075 26.9178 72.9629 24.916L75.3513 22.9142H75.3465Z" fill="#2F3239"/>
<path d="M86.7441 23.6386C86.7441 20.8622 88.7337 19.635 91.4152 19.0566L95.2645 18.2217V17.9752C95.2645 16.582 94.5773 15.722 92.8761 15.722C91.3623 15.722 90.5694 16.4412 90.1946 17.8596L87.1959 17.1403C87.8831 14.7261 89.9303 12.835 93.0107 12.835C96.3554 12.835 98.3737 14.4998 98.3737 17.8596V24.1416C98.3737 24.9765 98.7197 25.2229 99.5944 25.1123V27.6975C97.2877 27.9741 96.0622 27.5013 95.5865 26.3093C94.707 27.3354 93.2509 27.949 91.444 27.949C88.7913 27.949 86.7441 26.254 86.7441 23.6436V23.6386ZM95.2645 20.7767L92.2658 21.4457C90.9106 21.7525 89.9014 22.1951 89.9014 23.5028C89.9014 24.6395 90.6992 25.2833 91.9198 25.2833C93.621 25.2833 95.2645 24.3377 95.2645 22.5572V20.7767Z" fill="#2F3239"/>
<path d="M102.016 7.74561H105.307V11.1657H102.016V7.74561ZM105.255 27.6931H102.068V13.1072H105.255V27.6931Z" fill="#2F3239"/>
<path d="M112.001 27.6931H108.814V7.74561H112.001V27.6931Z" fill="#2F3239"/>
<path d="M13.5352 20.9632V8.46962C13.5352 7.98174 14.0109 7.74032 14.429 7.92139L17.173 9.44536C17.3508 9.56607 17.471 9.75217 17.471 9.99359V20.9632C17.471 21.3304 17.2307 21.5718 16.8751 21.5718H14.1311C13.8331 21.5718 13.5352 21.265 13.5352 20.9632Z" fill="#2F3239"/>
<path d="M5.66822 20.9639V14.018C5.66822 13.5301 5.19246 13.2887 4.77438 13.4697L2.03037 14.9937C1.85256 15.1144 1.73242 15.3005 1.73242 15.5419V20.9639C1.73242 21.331 1.9727 21.5724 2.32832 21.5724H5.07232C5.37027 21.5724 5.66822 21.2656 5.66822 20.9639Z" fill="#2F3239"/>
<path d="M7.63477 20.9632V0.608289C7.63477 0.120415 8.11052 -0.121007 8.52861 0.0600596L11.2726 1.58404C11.4504 1.70475 11.5706 1.89084 11.5706 2.13226V20.9632C11.5706 21.3303 11.3303 21.5718 10.9747 21.5718H8.23066C7.87505 21.5718 7.63477 21.2649 7.63477 20.9632Z" fill="#2F3239"/>
<path d="M17.6472 27.3617L19.1369 24.5602C19.3772 24.1327 19.0792 23.6448 18.5987 23.6448H0.596834C0.121078 23.6448 -0.119202 24.1327 0.0586055 24.5602L1.54835 27.3617C1.66849 27.5427 1.84629 27.6685 2.08657 27.6685H17.1714C17.3492 27.6685 17.5895 27.5478 17.6472 27.3617Z" fill="#2F3239"/>
</svg>
