<svg width="16" height="16" viewBox="0 0 16 16" fill="none" xmlns="http://www.w3.org/2000/svg">
<path fill-rule="evenodd" clip-rule="evenodd" d="M2.73328 7.35144C5.59658 6.03429 7.5059 5.16594 8.46123 4.7464C11.1889 3.54852 11.7557 3.34044 12.1251 3.33357C12.2064 3.33206 12.388 3.35332 12.5057 3.45414C12.6051 3.53927 12.6324 3.65427 12.6455 3.73498C12.6586 3.81569 12.6749 3.99956 12.6619 4.14323C12.5141 5.78303 11.8745 9.76239 11.5491 11.599C11.4115 12.3761 11.1404 12.6367 10.8779 12.6622C10.3075 12.7176 9.8744 12.2642 9.32196 11.8819C8.4575 11.2836 7.96913 10.9111 7.13002 10.3273C6.16028 9.65255 6.78892 9.28171 7.34157 8.67566C7.4862 8.51705 9.99931 6.10356 10.048 5.88461C10.054 5.85723 10.0597 5.75516 10.0023 5.70127C9.94482 5.64737 9.86006 5.6658 9.79889 5.68046C9.71219 5.70124 8.3312 6.66498 5.65593 8.5717C5.26394 8.8559 4.90889 8.99437 4.59077 8.98711C4.24008 8.97911 3.56548 8.77775 3.06399 8.60563C2.44889 8.39453 1.96001 8.28291 2.00258 7.92438C2.02476 7.73764 2.26832 7.54666 2.73328 7.35144Z" fill="#2F3239"/>
</svg>
